PathFileType	4	(X/Y/Z)	Walk7.trc
DataRate	CameraRate	NumFrames	NumMarkers	Units	OrigDataRate	OrigDataStartFrame	OrigNumFrames
200.000000	200.000000	7	59	mm	200.000000	417	590
Frame#	Times		LFHD		RFHD		CLAV		STRN		LASI		RASI		RACR1		RUA1		RElbow		RFA1		RWRR		RWRU		RCAR		LACR1		LUA1		LElbow		LFA1		LWRR		LCAR		RTH3		RTH2		RTB1		RTB2		RTB4		LTH1		LTH3		LTH2		LTH4		LLFC		LTB1		LTB2		LTB4		LMT1		LToe		LWRU		LMT5		LTB3		RTB3		LMFC		RMT1		RMMAL		RElbowM		RLFC		RToe		RBHD		RTH4		RTH1		RCAL		RBack		RMFC		RPSI		LLMAL		C7		LPSI		T10		LMMAL		LBHD		LCAL		LElbowM
			X1	Y1	Z1	X2	Y2	Z2	X3	Y3	Z3	X4	Y4	Z4	X5	Y5	Z5	X6	Y6	Z6	X7	Y7	Z7	X8	Y8	Z8	X9	Y9	Z9	X10	Y10	Z10	X11	Y11	Z11	X12	Y12	Z12	X13	Y13	Z13	X14	Y14	Z14	X15	Y15	Z15	X16	Y16	Z16	X17	Y17	Z17	X18	Y18	Z18	X19	Y19	Z19	X20	Y20	Z20	X21	Y21	Z21	X22	Y22	Z22	X23	Y23	Z23	X24	Y24	Z24	X25	Y25	Z25	X26	Y26	Z26	X27	Y27	Z27	X28	Y28	Z28	X29	Y29	Z29	X30	Y30	Z30	X31	Y31	Z31	X32	Y32	Z32	X33	Y33	Z33	X34	Y34	Z34	X35	Y35	Z35	X36	Y36	Z36	X37	Y37	Z37	X38	Y38	Z38	X39	Y39	Z39	X40	Y40	Z40	X41	Y41	Z41	X42	Y42	Z42	X43	Y43	Z43	X44	Y44	Z44	X45	Y45	Z45	X46	Y46	Z46	X47	Y47	Z47	X48	Y48	Z48	X49	Y49	Z49	X50	Y50	Z50	X51	Y51	Z51	X52	Y52	Z52	X53	Y53	Z53	X54	Y54	Z54	X55	Y55	Z55	X56	Y56	Z56	X57	Y57	Z57	X58	Y58	Z58	X59	Y59	Z59

417	2.085	590.76	1671.6	98.44	587.76	1669.4	-0.60137	591.09	1416.5	54.444	659.65	1260.6	43.355	527.4	1004.1	-139.94	572.03	994.33	227.06	481.4	1493.9	231.69	459.3	1323.4	346.14	470.39	1175.8	394.78	512.96	1028.5	409.31	549.93	914.83	339.03	536.94	916.81	420.18	579.34	836.47	387.94	462.72	1481.4	-121.09	423.96	1311.3	-211.25	411.52	1149.6	-266.23	443.82	1013.7	-285.12	510.31	894.49	-234.36	527.27	810.67	-271.28	533.4	614.72	224.11	568.71	713.42	225.62	585.5	379.51	129.92	552.37	291.93	179.03	566.79	295.19	119.16	508.12	776.61	-175.64	550.58	609.96	-176.1	584.65	707.88	-159.65	528.44	694.34	-176.95	537.83	531.03	-177.17	557.83	395.83	-120.07	479.22	336.58	-153.3	511.82	327.7	-100.77	414.06	52.504	-76.397	452.92	37.891	-120.89	462.78	874.98	-288.94	352.73	72.31	-142.28	457.86	260.76	-84.081	548.4	211.79	108.46	572.28	513.34	-22.828	616.35	26.284	77.163	488.56	84.079	47.573	426.01	1103.4	295.48	534.49	498.49	213.18	662.75	31.121	109.63	436.48	1592.7	-6.2453	513.27	696.69	238.65	492.12	779.42	254.5	394.88	49.24	88.733	337.3	1372.4	180.19	520.36	505.53	57.907	294.7	1037.7	101.21	298.44	170.64	-80.033	395.36	1492.7	65.337	297.96	1041.2	15.998	333.96	1175.6	62.495	333.17	164.25	2.578	455.76	1601.2	141.04	245.93	167.33	-17.97	360.51	1087.4	-168.88
418	2.09	596.73	1672.5	98.477	593.7	1670.2	-0.55309	596.8	1417.4	54.504	665.32	1261.5	43.451	533.92	1004.9	-139.25	577.51	995.84	227.14	486.97	1494.9	231.74	465.15	1324.4	346.42	477.04	1176.9	395.45	521.13	1030.1	409.84	559.44	916.89	339.48	546.27	918.7	420.62	589.51	838.79	388.42	468.53	1482.2	-121.04	428.92	1312.3	-211.1	414.99	1150.7	-265.86	445.92	1014.5	-284.83	511.58	894.66	-234.27	527.27	810.4	-271.12	535.48	614.84	224.28	571.76	713.18	225.84	586.1	379.33	130.15	552.69	291.82	179.2	567.25	295.06	119.34	515.79	777.79	-175.08	559.65	611.48	-174.98	592.88	709.68	-158.81	536.78	695.64	-176.08	547.62	532.45	-175.87	570.05	397.54	-119.16	492.83	336.62	-152.66	525.66	328.31	-100.18	434.9	51.352	-76.968	474.2	38.029	-121.41	463.58	875.56	-288.63	373.04	69.735	-142.8	473.22	260.07	-83.773	548.69	211.7	108.61	581.79	515.15	-21.642	616.35	26.346	77.256	488.64	84.136	47.595	433.67	1104.2	295.86	535.48	498.52	213.32	662.77	31.031	109.84	442.35	1593.7	-6.1479	516.19	697.01	238.86	495.85	779.94	254.8	394.89	49.308	88.756	343.04	1373.2	180.25	521.33	505.62	57.991	300.32	1038.8	101.16	315.91	166.1	-80.145	401.21	1493.6	65.378	303.89	1042.2	15.862	339.84	1176.5	62.545	350.72	160.33	2.4602	461.67	1602.2	141.13	263.3	161.06	-18.19	363.76	1089	-168.26
419	2.095	602.69	1673.2	98.494	599.64	1670.9	-0.52475	602.5	1418.2	54.563	670.97	1262.3	43.551	540.46	1005.6	-138.53	582.97	997.27	227.22	492.52	1495.8	231.79	470.99	1325.3	346.69	483.73	1178	396.12	529.32	1031.7	410.35	568.92	918.91	339.89	555.61	920.55	421.03	599.69	841.07	388.85	474.34	1483	-120.99	433.87	1313.2	-210.97	418.47	1151.7	-265.52	448.06	1015.2	-284.54	512.88	894.81	-234.17	527.32	810.14	-270.94	537.57	614.94	224.43	574.81	712.92	226.03	586.72	379.14	130.35	553.02	291.71	179.35	567.73	294.92	119.51	523.41	778.9	-174.53	568.61	612.93	-173.85	601.02	711.42	-157.95	545.03	696.87	-175.21	557.28	533.8	-174.53	582.19	399.22	-118.22	506.42	336.64	-152.01	539.48	328.91	-99.582	455.79	50.277	-77.533	495.48	38.248	-121.95	464.43	876.13	-288.31	393.41	67.221	-143.29	488.63	259.38	-83.456	548.99	211.6	108.74	591.19	516.88	-20.413	616.35	26.404	77.345	488.73	84.187	47.606	441.32	1104.9	296.29	536.49	498.54	213.44	662.78	30.943	110.04	448.21	1594.6	-6.0665	519.12	697.3	239.05	499.59	780.42	255.08	394.9	49.373	88.769	348.77	1373.9	180.29	522.36	505.7	58.053	305.93	1039.9	101.09	333.55	161.56	-80.224	407.06	1494.5	65.407	309.8	1043	15.703	345.71	1177.3	62.555	368.46	156.41	2.3706	467.59	1603.1	141.2	280.92	154.78	-18.37	367	1090.5	-167.69
420	2.1	608.65	1673.9	98.492	605.59	1671.5	-0.51615	608.19	1418.9	54.621	676.62	1263	43.657	547.03	1006.2	-137.76	588.42	998.63	227.29	498.07	1496.5	231.82	476.82	1326.2	346.97	490.44	1179	396.79	537.53	1033.2	410.84	578.36	920.87	340.27	564.96	922.33	421.41	609.85	843.3	389.24	480.16	1483.8	-120.97	438.81	1314.1	-210.86	421.98	1152.7	-265.22	450.25	1015.9	-284.26	514.22	894.94	-234.07	527.42	809.89	-270.74	539.69	615.04	224.55	577.86	712.64	226.2	587.36	378.94	130.54	553.35	291.6	179.49	568.22	294.77	119.67	530.95	779.93	-173.99	577.47	614.3	-172.7	609.05	713.07	-157.05	553.2	698.04	-174.35	566.83	535.07	-173.18	594.25	400.88	-117.26	519.97	336.65	-151.34	553.26	329.51	-98.971	476.72	49.291	-78.094	516.73	38.558	-122.5	465.33	876.67	-287.99	413.83	64.784	-143.76	504.07	258.71	-83.129	549.3	211.48	108.86	600.49	518.53	-19.147	616.36	26.458	77.432	488.82	84.232	47.606	448.98	1105.6	296.74	537.51	498.54	213.54	662.79	30.856	110.24	454.08	1595.3	-6.0008	522.06	697.56	239.22	503.34	780.86	255.33	394.91	49.435	88.768	354.49	1374.5	180.31	523.43	505.78	58.101	311.53	1041	101	351.35	157.06	-80.267	412.91	1495.2	65.424	315.69	1043.8	15.518	351.57	1178.1	62.523	386.37	152.53	2.3123	473.5	1603.9	141.26	298.78	148.54	-18.504	370.23	1092	-167.17
421	2.105	614.62	1674.5	98.471	611.54	1672.1	-0.52692	613.88	1419.6	54.677	682.26	1263.7	43.773	553.61	1006.8	-136.97	593.84	999.9	227.36	503.61	1497.2	231.85	482.65	1326.9	347.25	497.18	1179.9	397.46	545.76	1034.6	411.3	587.78	922.77	340.63	574.32	924.06	421.77	620.01	845.49	389.58	485.99	1484.4	-120.95	443.74	1314.9	-210.77	425.51	1153.6	-264.95	452.5	1016.6	-283.99	515.59	895.04	-233.94	527.58	809.64	-270.5	541.82	615.11	224.66	580.93	712.33	226.34	588.02	378.73	130.71	553.71	291.48	179.61	568.73	294.61	119.82	538.44	780.89	-173.45	586.22	615.61	-171.56	617	714.64	-156.13	561.29	699.13	-173.5	576.26	536.27	-171.82	606.23	402.51	-116.3	533.47	336.65	-150.64	567	330.11	-98.352	497.67	48.408	-78.649	537.94	38.966	-123.08	466.28	877.18	-287.65	434.29	62.437	-144.2	519.53	258.06	-82.795	549.63	211.36	108.97	609.69	520.1	-17.849	616.36	26.509	77.516	488.92	84.27	47.596	456.64	1106.1	297.24	538.56	498.54	213.64	662.8	30.773	110.43	459.95	1596.1	-5.9506	525.02	697.8	239.37	507.1	781.27	255.56	394.93	49.496	88.755	360.2	1375.1	180.32	524.54	505.85	58.141	317.12	1041.9	100.87	369.29	152.6	-80.269	418.76	1495.9	65.429	321.57	1044.6	15.306	357.41	1178.8	62.448	404.45	148.7	2.2882	479.41	1604.6	141.31	316.88	142.34	-18.589	373.46	1093.4	-166.71
422	2.11	620.59	1675	98.433	617.49	1672.6	-0.55645	619.57	1420.1	54.732	687.89	1264.3	43.901	560.19	1007.4	-136.16	599.25	1001.1	227.43	509.14	1497.9	231.88	488.49	1327.6	347.52	503.96	1180.8	398.13	554.02	1036	411.73	597.18	924.61	340.95	583.7	925.73	422.1	630.17	847.63	389.86	491.83	1485	-120.94	448.66	1315.7	-210.69	429.08	1154.4	-264.7	454.8	1017.2	-283.72	516.99	895.12	-233.8	527.8	809.38	-270.24	543.98	615.17	224.76	584.01	712	226.46	588.7	378.51	130.86	554.09	291.36	179.71	569.24	294.45	119.95	545.85	781.77	-172.92	594.87	616.83	-170.41	624.84	716.12	-155.18	569.29	700.15	-172.66	585.56	537.4	-170.44	618.12	404.12	-115.33	546.93	336.64	-149.93	580.69	330.71	-97.726	518.63	47.638	-79.196	559.11	39.48	-123.66	467.29	877.65	-287.31	454.77	60.193	-144.61	535	257.45	-82.452	549.96	211.23	109.06	618.79	521.58	-16.523	616.37	26.556	77.598	489.02	84.301	47.575	464.31	1106.6	297.76	539.64	498.52	213.72	662.8	30.692	110.62	465.82	1596.7	-5.9159	527.99	698.01	239.51	510.87	781.65	255.78	394.96	49.556	88.728	365.91	1375.6	180.31	525.7	505.91	58.179	322.7	1042.8	100.7	387.36	148.21	-80.226	424.6	1496.6	65.423	327.44	1045.3	15.067	363.24	1179.4	62.33	422.69	144.93	2.3007	485.33	1605.3	141.33	335.19	136.21	-18.62	376.69	1094.8	-166.3
423	2.115	626.56	1675.5	98.377	623.45	1673	-0.60403	625.25	1420.6	54.785	693.52	1264.7	44.041	566.77	1007.9	-135.35	604.64	1002.2	227.5	514.66	1498.4	231.9	494.33	1328.2	347.78	510.78	1181.5	398.79	562.29	1037.3	412.14	606.55	926.4	341.24	593.09	927.34	422.4	640.31	849.72	390.11	497.67	1485.5	-120.95	453.58	1316.4	-210.64	432.69	1155.2	-264.48	457.15	1017.8	-283.45	518.42	895.17	-233.63	528.08	809.12	-269.96	546.17	615.2	224.86	587.1	711.64	226.56	589.4	378.27	130.99	554.5	291.23	179.8	569.77	294.27	120.06	553.2	782.56	-172.39	603.42	617.98	-169.26	632.6	717.51	-154.2	577.21	701.09	-171.84	594.75	538.44	-169.05	629.91	405.71	-114.35	560.33	336.64	-149.2	594.34	331.31	-97.096	539.59	46.993	-79.731	580.21	40.105	-124.26	468.35	878.09	-286.96	475.28	58.06	-144.99	550.49	256.88	-82.1	550.31	211.09	109.14	627.8	522.98	-15.174	616.38	26.598	77.679	489.12	84.324	47.545	472	1106.9	298.31	540.76	498.49	213.78	662.81	30.616	110.8	471.7	1597.3	-5.8967	530.99	698.19	239.63	514.65	781.98	255.97	394.99	49.615	88.689	371.61	1376.1	180.29	526.88	505.96	58.22	328.27	1043.7	100.5	405.55	143.9	-80.136	430.43	1497.1	65.405	333.29	1045.9	14.799	369.07	1179.9	62.17	441.08	141.25	2.352	491.24	1605.9	141.34	353.72	130.17	-18.591	379.92	1096.1	-165.94
